# xmcd
#
# Track frame offsets:
#	150
#	15915
#	34227
#	52098
#	67700
#	87355
#	102270
#	117784
#	139920
#	155987
#	172272
#
# Disc length: 2486 seconds
#
# Revision: 1
# Processed by: cddbd v1.5.2PL0 Copyright (c) Steve Scherf et al.
# Submitted via: audiograbber 1.83.01
#
DISCID=9309b40b
DTITLE=Björn Skifs - Schiffz!
DYEAR=1975
DGENRE=Pop
TTITLE0=Ni som kan ro
TTITLE1=Det regnar, regnar
TTITLE2=I mörkret med dej
TTITLE3=Aina
TTITLE4=Vi bygger oss en båt
TTITLE5=Michelangelo (men så svara då!)
TTITLE6=Krama dej
TTITLE7=Med varann
TTITLE8=En joker i leken
TTITLE9=Sånt händer människor varje dag
TTITLE10=Till en poet
EXTD=
EXTT0=
EXTT1=
EXTT2=
EXTT3=
EXTT4=
EXTT5=
EXTT6=
EXTT7=
EXTT8=
EXTT9=
EXTT10=
PLAYORDER=
